<svg width="53" height="13" viewBox="0 0 53 13" fill="none" xmlns="http://www.w3.org/2000/svg">
<path fill-rule="evenodd" clip-rule="evenodd" d="M0 2H1H4V3H1V6H4V7H1V10H4V11H1H0V2ZM4 10H5V7H4V10ZM4 6V3H5V6H4ZM11 5H8V6H11V7H8V8H7V10H8V11H11H12V6H11V5ZM8 10V8H11V10H8ZM37 5H40V6H37V5ZM37 10V11H40H41V6H40V7H37V8H36V10H37ZM37 10H40V8H37V10ZM17 5H14V6H13V10H14V11H17V10H18V9H17V10H14V6H17V7H18V6H17V5ZM43 5H46V6H43V5ZM43 10H42V6H43V10ZM46 10V11H43V10H46ZM46 10V9H47V10H46ZM46 6H47V7H46V6ZM52 5H49V6H48V10H49V11H52V10H53V9H52V10H49V8H52H53V6H52V5ZM52 6V7H49V6H52ZM20 7H21V8H20V11H19V2H20V7ZM22 9H21V8H22V9ZM23 10H22V9H23V10ZM23 10H24V11H23V10ZM22 6H21V7H22V6ZM22 6H23V5H22V6ZM26 7H25V6H26V7ZM27 8H26V7H27V8ZM28 9H27V8H28V9ZM28 10V9H29V10H28ZM26 10H28V11H26V10ZM26 10H25V9H26V10ZM28 6H26V5H28V6ZM28 6H29V7H28V6ZM34 6H31V10H34V11H31V13H30V5H31H34V6ZM34 6V10H35V6H34Z" fill="#FF0000"/>
</svg>
