<svg width="81" height="16" viewBox="0 0 81 16" fill="none" xmlns="http://www.w3.org/2000/svg">
<g filter="url(#filter0_d_265_920)">
<path fill-rule="evenodd" clip-rule="evenodd" d="M24 4H20V5H19V6H18V12H19V13H20V14H24V13H25V12H23V13H21V12H20V6H21V5H23V6H25V5H24V4ZM34 4H36V13H37V14H35V13H34V4ZM37 13V8H38V7H42V8H43V9H41V8H39V13H41V12H43V13H42V14H38V13H37ZM55 4H53V13H54V14H56V13H57V14H60H62V8H61V7H57V8H60V9H57V10H56V13H55V4ZM66 5H64V7H63V8H64V13H65V14H67V13H66V8H67V7H66V5ZM73 7H69V8H68V13H69V14H73V13H74V8H73V7ZM72 13H70V8H72V13ZM78 7H76V14H78V8H79V9H80V8V7H78ZM58 13V10H60V13H58ZM47 7H45V13H46V14H51V13V7H49V13H47V7ZM27 7H31V8H32V14H30H27V13H26V10H27V9H30V8H27V7ZM28 10V13H30V10H28Z" fill="white"/>
</g>
<mask id="mask0_265_920" style="mask-type:alpha" maskUnits="userSpaceOnUse" x="0" y="0" width="14" height="16">
<rect width="14" height="16" fill="#C4C4C4"/>
</mask>
<g mask="url(#mask0_265_920)">
<g filter="url(#filter1_diiii_265_920)">
<rect width="10" height="15" rx="2" fill="#9EB2FC"/>
<rect width="10" height="15" rx="2" fill="url(#paint0_linear_265_920)"/>
</g>
</g>
<g filter="url(#filter2_i_265_920)">
<rect x="7" y="12" width="2" height="2" fill="#B44600"/>
<rect x="7" y="6" width="2" height="2" fill="#586BA4"/>
<rect x="1" y="6" width="2" height="2" fill="#586BA4"/>
<rect x="1" y="9" width="2" height="2" fill="#586BA4"/>
<rect x="1" y="12" width="2" height="2" fill="#586BA4"/>
<rect x="4" y="6" width="2" height="2" fill="#586BA4"/>
<rect x="4" y="9" width="2" height="2" fill="#586BA4"/>
<rect x="4" y="12" width="2" height="2" fill="#586BA4"/>
<rect x="7" y="9" width="2" height="2" fill="#586BA4"/>
</g>
<g filter="url(#filter3_di_265_920)">
<rect x="1" y="2" width="8" height="3" rx="1.5" fill="#5B97FF"/>
</g>
<defs>
<filter id="filter0_d_265_920" x="18" y="4" width="63" height="11" filterUnits="userSpaceOnUse" color-interpolation-filters="sRGB">
<feFlood flood-opacity="0" result="BackgroundImageFix"/>
<feColorMatrix in="SourceAlpha" type="matrix" values="0 0 0 0 0 0 0 0 0 0 0 0 0 0 0 0 0 0 127 0" result="hardAlpha"/>
<feOffset dx="1" dy="1"/>
<feColorMatrix type="matrix" values="0 0 0 0 0.0352941 0 0 0 0 0.0901961 0 0 0 0 0.498039 0 0 0 1 0"/>
<feBlend mode="normal" in2="BackgroundImageFix" result="effect1_dropShadow_265_920"/>
<feBlend mode="normal" in="SourceGraphic" in2="effect1_dropShadow_265_920" result="shape"/>
</filter>
<filter id="filter1_diiii_265_920" x="-1" y="-2" width="14" height="19" filterUnits="userSpaceOnUse" color-interpolation-filters="sRGB">
<feFlood flood-opacity="0" result="BackgroundImageFix"/>
<feColorMatrix in="SourceAlpha" type="matrix" values="0 0 0 0 0 0 0 0 0 0 0 0 0 0 0 0 0 0 127 0" result="hardAlpha"/>
<feOffset dx="1"/>
<feGaussianBlur stdDeviation="1"/>
<feColorMatrix type="matrix" values="0 0 0 0 0.00392157 0 0 0 0 0.180392 0 0 0 0 0.45098 0 0 0 1 0"/>
<feBlend mode="normal" in2="BackgroundImageFix" result="effect1_dropShadow_265_920"/>
<feBlend mode="normal" in="SourceGraphic" in2="effect1_dropShadow_265_920" result="shape"/>
<feColorMatrix in="SourceAlpha" type="matrix" values="0 0 0 0 0 0 0 0 0 0 0 0 0 0 0 0 0 0 127 0" result="hardAlpha"/>
<feOffset dy="2"/>
<feComposite in2="hardAlpha" operator="arithmetic" k2="-1" k3="1"/>
<feColorMatrix type="matrix" values="0 0 0 0 1 0 0 0 0 1 0 0 0 0 1 0 0 0 1 0"/>
<feBlend mode="normal" in2="shape" result="effect2_innerShadow_265_920"/>
<feColorMatrix in="SourceAlpha" type="matrix" values="0 0 0 0 0 0 0 0 0 0 0 0 0 0 0 0 0 0 127 0" result="hardAlpha"/>
<feOffset dy="1"/>
<feGaussianBlur stdDeviation="0.5"/>
<feComposite in2="hardAlpha" operator="arithmetic" k2="-1" k3="1"/>
<feColorMatrix type="matrix" values="0 0 0 0 0.796078 0 0 0 0 0.992157 0 0 0 0 1 0 0 0 1 0"/>
<feBlend mode="normal" in2="effect2_innerShadow_265_920" result="effect3_innerShadow_265_920"/>
<feColorMatrix in="SourceAlpha" type="matrix" values="0 0 0 0 0 0 0 0 0 0 0 0 0 0 0 0 0 0 127 0" result="hardAlpha"/>
<feOffset dx="-1"/>
<feComposite in2="hardAlpha" operator="arithmetic" k2="-1" k3="1"/>
<feColorMatrix type="matrix" values="0 0 0 0 0 0 0 0 0 0 0 0 0 0 0 0 0 0 0.2 0"/>
<feBlend mode="normal" in2="effect3_innerShadow_265_920" result="effect4_innerShadow_265_920"/>
<feColorMatrix in="SourceAlpha" type="matrix" values="0 0 0 0 0 0 0 0 0 0 0 0 0 0 0 0 0 0 127 0" result="hardAlpha"/>
<feOffset dx="1"/>
<feComposite in2="hardAlpha" operator="arithmetic" k2="-1" k3="1"/>
<feColorMatrix type="matrix" values="0 0 0 0 1 0 0 0 0 1 0 0 0 0 1 0 0 0 0.5 0"/>
<feBlend mode="normal" in2="effect4_innerShadow_265_920" result="effect5_innerShadow_265_920"/>
</filter>
<filter id="filter2_i_265_920" x="1" y="6" width="8" height="8" filterUnits="userSpaceOnUse" color-interpolation-filters="sRGB">
<feFlood flood-opacity="0" result="BackgroundImageFix"/>
<feBlend mode="normal" in="SourceGraphic" in2="BackgroundImageFix" result="shape"/>
<feColorMatrix in="SourceAlpha" type="matrix" values="0 0 0 0 0 0 0 0 0 0 0 0 0 0 0 0 0 0 127 0" result="hardAlpha"/>
<feOffset dy="1"/>
<feComposite in2="hardAlpha" operator="arithmetic" k2="-1" k3="1"/>
<feColorMatrix type="matrix" values="0 0 0 0 1 0 0 0 0 1 0 0 0 0 1 0 0 0 0.1 0"/>
<feBlend mode="normal" in2="shape" result="effect1_innerShadow_265_920"/>
</filter>
<filter id="filter3_di_265_920" x="1" y="2" width="8" height="4" filterUnits="userSpaceOnUse" color-interpolation-filters="sRGB">
<feFlood flood-opacity="0" result="BackgroundImageFix"/>
<feColorMatrix in="SourceAlpha" type="matrix" values="0 0 0 0 0 0 0 0 0 0 0 0 0 0 0 0 0 0 127 0" result="hardAlpha"/>
<feOffset dy="1"/>
<feColorMatrix type="matrix" values="0 0 0 0 1 0 0 0 0 1 0 0 0 0 1 0 0 0 0.3 0"/>
<feBlend mode="normal" in2="BackgroundImageFix" result="effect1_dropShadow_265_920"/>
<feBlend mode="normal" in="SourceGraphic" in2="effect1_dropShadow_265_920" result="shape"/>
<feColorMatrix in="SourceAlpha" type="matrix" values="0 0 0 0 0 0 0 0 0 0 0 0 0 0 0 0 0 0 127 0" result="hardAlpha"/>
<feOffset dx="1" dy="1"/>
<feComposite in2="hardAlpha" operator="arithmetic" k2="-1" k3="1"/>
<feColorMatrix type="matrix" values="0 0 0 0 0.2236 0 0 0 0 0.43122 0 0 0 0 0.86 0 0 0 1 0"/>
<feBlend mode="normal" in2="shape" result="effect2_innerShadow_265_920"/>
</filter>
<linearGradient id="paint0_linear_265_920" x1="5" y1="0" x2="5" y2="15" gradientUnits="userSpaceOnUse">
<stop stop-color="#E3E4FF"/>
<stop offset="1" stop-color="#9EB2FC"/>
</linearGradient>
</defs>
</svg>
